<svg xmlns="http://www.w3.org/2000/svg" xmlns:xlink="http://www.w3.org/1999/xlink" version="1.1" width="1000" height="1000" viewBox="0 0 1000 1000" xml:space="preserve">
<desc>Created with Fabric.js 3.5.0</desc>
<defs>
</defs>
<rect x="0" y="0" width="100%" height="100%" fill="rgba(102,51,102,0)"/>
<g transform="matrix(3.695 0 0 3.695 500.0005 530.0341)" id="341279">
<g style="">
		<g transform="matrix(4.9766 0 0 4.9766 0.3122 46.0026)" id="712229" clip-path="url(#CLIPPATH_2)">
<clipPath id="CLIPPATH_2">
	<rect transform="matrix(1 0 0 1 55.7599 -9.1447)" id="clip0_305_14343" x="-73.5" y="-21.7778" rx="0" ry="0" width="147" height="43.5556"/>
</clipPath>
<path style="stroke: none; stroke-width: 1; stroke-dasharray: none; stroke-linecap: butt; stroke-dashoffset: 0; stroke-linejoin: miter; stroke-miterlimit: 4; is-custom-font: none; font-file-url: none; fill: rgb(255,255,255); fill-rule: nonzero; opacity: 1;" transform=" translate(-17.7401, -30.9225)" d="M 19.2237 33.5351 C 18.9078 33.7408 18.5993 33.9289 18.278 33.954 C 17.6203 34.0055 16.9557 33.9695 16.2549 33.9695 C 16.2549 31.8816 16.2549 29.8951 16.2549 27.8633 C 17.2077 27.8633 18.1338 27.8633 19.2253 27.8633 C 19.2253 29.6983 19.2253 31.571 19.2237 33.5351 Z" stroke-linecap="round"/>
</g>
		<g transform="matrix(4.9766 0 0 4.9766 46.5789 0.0261)" id="301846" clip-path="url(#CLIPPATH_3)">
<clipPath id="CLIPPATH_3">
	<rect transform="matrix(1 0 0 1 46.463 0.0939)" id="clip0_305_14343" x="-73.5" y="-21.7778" rx="0" ry="0" width="147" height="43.5556"/>
</clipPath>
<path style="stroke: none; stroke-width: 1; stroke-dasharray: none; stroke-linecap: butt; stroke-dashoffset: 0; stroke-linejoin: miter; stroke-miterlimit: 4; is-custom-font: none; font-file-url: none; fill: rgb(255,255,255); fill-rule: nonzero; opacity: 1;" transform=" translate(-27.037, -21.6839)" d="M 29.6126 20.1972 C 29.843 21.1588 29.9797 22.1169 30.1305 23.1741 C 27.9453 23.1741 25.9604 23.1741 23.9434 23.1741 C 23.9434 22.2203 23.9434 21.2635 23.9434 20.1938 C 25.8012 20.1938 27.66 20.1938 29.6126 20.1972 Z" stroke-linecap="round"/>
</g>
		<g transform="matrix(4.9766 0 0 4.9766 0.2771 -45.6667)" id="803973" clip-path="url(#CLIPPATH_4)">
<clipPath id="CLIPPATH_4">
	<rect transform="matrix(1 0 0 1 55.767 9.2754)" id="clip0_305_14343" x="-73.5" y="-21.7778" rx="0" ry="0" width="147" height="43.5556"/>
</clipPath>
<path style="stroke: none; stroke-width: 1; stroke-dasharray: none; stroke-linecap: butt; stroke-dashoffset: 0; stroke-linejoin: miter; stroke-miterlimit: 4; is-custom-font: none; font-file-url: none; fill: rgb(255,255,255); fill-rule: nonzero; opacity: 1;" transform=" translate(-17.733, -12.5024)" d="M 16.211 10.8892 C 16.211 10.3725 16.211 9.95857 16.211 9.47119 C 17.2678 9.47119 18.2271 9.47119 19.2552 9.47119 C 19.2552 11.4941 19.2552 13.4805 19.2552 15.5336 C 18.2988 15.5336 17.3342 15.5336 16.2109 15.5336 C 16.2109 14.0473 16.2109 12.5196 16.211 10.8892 Z" stroke-linecap="round"/>
</g>
		<g transform="matrix(4.9766 0 0 4.9766 -22.5504 39.7758)" id="680271" clip-path="url(#CLIPPATH_5)">
<clipPath id="CLIPPATH_5">
	<rect transform="matrix(1 0 0 1 60.3539 -7.8935)" id="clip0_305_14343" x="-73.5" y="-21.7778" rx="0" ry="0" width="147" height="43.5556"/>
</clipPath>
<path style="stroke: none; stroke-width: 1; stroke-dasharray: none; stroke-linecap: butt; stroke-dashoffset: 0; stroke-linejoin: miter; stroke-miterlimit: 4; is-custom-font: none; font-file-url: none; fill: rgb(255,255,255); fill-rule: nonzero; opacity: 1;" transform=" translate(-13.146, -29.6713)" d="M 10.9696 30.3729 C 11.7806 28.9749 12.5511 27.6459 13.3354 26.293 C 14.1995 26.7899 15.0327 27.269 15.9508 27.797 C 14.96 29.5115 13.9519 31.2559 12.9154 33.0496 C 12.0387 32.547 11.2263 32.0812 10.3413 31.5739 C 10.5578 31.1568 10.7435 30.7993 10.9696 30.3729 Z" stroke-linecap="round"/>
</g>
		<g transform="matrix(4.9766 0 0 4.9766 40.0661 23.0605)" id="969824" clip-path="url(#CLIPPATH_6)">
<clipPath id="CLIPPATH_6">
	<rect transform="matrix(1 0 0 1 47.7717 -4.5347)" id="clip0_305_14343" x="-73.5" y="-21.7778" rx="0" ry="0" width="147" height="43.5556"/>
</clipPath>
<path style="stroke: none; stroke-width: 1; stroke-dasharray: none; stroke-linecap: butt; stroke-dashoffset: 0; stroke-linejoin: miter; stroke-miterlimit: 4; is-custom-font: none; font-file-url: none; fill: rgb(255,255,255); fill-rule: nonzero; opacity: 1;" transform=" translate(-25.7283, -26.3125)" d="M 22.3407 26.2979 C 22.8194 25.3926 23.298 24.4874 23.8242 23.4922 C 25.5737 24.4979 27.2905 25.4847 29.116 26.5341 C 28.6194 27.3946 28.1429 28.2202 27.6162 29.1328 C 25.8649 28.1449 24.1719 27.1897 22.4065 26.2635 C 22.3341 26.2924 22.3407 26.2979 22.3407 26.2979 Z" stroke-linecap="round"/>
</g>
		<g transform="matrix(4.9766 0 0 4.9766 -22.4166 -39.3024)" id="60547" clip-path="url(#CLIPPATH_7)">
<clipPath id="CLIPPATH_7">
	<rect transform="matrix(1 0 0 1 60.327 7.9965)" id="clip0_305_14343" x="-73.5" y="-21.7778" rx="0" ry="0" width="147" height="43.5556"/>
</clipPath>
<path style="stroke: none; stroke-width: 1; stroke-dasharray: none; stroke-linecap: butt; stroke-dashoffset: 0; stroke-linejoin: miter; stroke-miterlimit: 4; is-custom-font: none; font-file-url: none; fill: rgb(255,255,255); fill-rule: nonzero; opacity: 1;" transform=" translate(-13.173, -13.7813)" d="M 13.2586 17.2134 C 12.815 16.327 12.391 15.4301 11.9224 14.5571 C 11.4442 13.6662 10.9221 12.7989 10.3735 11.8414 C 11.2469 11.3336 12.0543 10.8641 12.9402 10.3491 C 13.9717 12.1261 14.9719 13.849 15.9724 15.5724 C 15.0703 16.0826 14.1983 16.5757 13.2852 17.1406 C 13.2439 17.2123 13.2586 17.2134 13.2586 17.2134 Z" stroke-linecap="round"/>
</g>
		<g transform="matrix(4.9766 0 0 4.9766 39.9321 -22.6432)" id="881430" clip-path="url(#CLIPPATH_8)">
<clipPath id="CLIPPATH_8">
	<rect transform="matrix(1 0 0 1 47.7987 4.649)" id="clip0_305_14343" x="-73.5" y="-21.7778" rx="0" ry="0" width="147" height="43.5556"/>
</clipPath>
<path style="stroke: none; stroke-width: 1; stroke-dasharray: none; stroke-linecap: butt; stroke-dashoffset: 0; stroke-linejoin: miter; stroke-miterlimit: 4; is-custom-font: none; font-file-url: none; fill: rgb(255,255,255); fill-rule: nonzero; opacity: 1;" transform=" translate(-25.7013, -17.1288)" d="M 29.0353 16.7855 C 27.3428 17.8908 25.6399 18.9219 23.9029 19.9738 C 23.3775 19.066 22.8971 18.2358 22.3674 17.3207 C 24.0822 16.3307 25.7966 15.3408 27.6275 14.2837 C 28.1275 15.1524 28.5762 15.9319 29.0353 16.7855 Z" stroke-linecap="round"/>
</g>
		<g transform="matrix(4.9766 0 0 4.9766 -39.0846 -22.9354)" id="286602" clip-path="url(#CLIPPATH_9)">
<clipPath id="CLIPPATH_9">
	<rect transform="matrix(1 0 0 1 63.6763 4.7077)" id="clip0_305_14343" x="-73.5" y="-21.7778" rx="0" ry="0" width="147" height="43.5556"/>
</clipPath>
<path style="stroke: none; stroke-width: 1; stroke-dasharray: none; stroke-linecap: butt; stroke-dashoffset: 0; stroke-linejoin: miter; stroke-miterlimit: 4; is-custom-font: none; font-file-url: none; fill: rgb(255,255,255); fill-rule: nonzero; opacity: 1;" transform=" translate(-9.8237, -17.0701)" d="M 13.245 17.205 C 12.7272 18.062 12.2082 18.9262 11.6361 19.8789 C 9.95561 18.9128 8.24339 17.9285 6.40186 16.8698 C 6.89129 16.0123 7.36469 15.1828 7.8907 14.2612 C 9.65826 15.263 11.3816 16.2397 13.1818 17.2149 C 13.2586 17.2133 13.2439 17.2122 13.245 17.205 Z" stroke-linecap="round"/>
</g>
		<g transform="matrix(4.9766 0 0 4.9766 23.1608 39.694)" id="793389" clip-path="url(#CLIPPATH_10)">
<clipPath id="CLIPPATH_10">
	<rect transform="matrix(1 0 0 1 51.1687 -7.8771)" id="clip0_305_14343" x="-73.5" y="-21.7778" rx="0" ry="0" width="147" height="43.5556"/>
</clipPath>
<path style="stroke: none; stroke-width: 1; stroke-dasharray: none; stroke-linecap: butt; stroke-dashoffset: 0; stroke-linejoin: miter; stroke-miterlimit: 4; is-custom-font: none; font-file-url: none; fill: rgb(255,255,255); fill-rule: nonzero; opacity: 1;" transform=" translate(-22.3313, -29.6549)" d="M 22.3313 26.2891 C 22.4194 26.5883 22.4587 26.9198 22.6096 27.1888 C 23.4141 28.623 24.2465 30.0416 25.1177 31.5494 C 24.2904 32.0295 23.5101 32.4824 22.5828 33.0206 C 21.5707 31.2812 20.5783 29.5759 19.5449 27.8 C 20.4857 27.321 21.3626 26.8745 22.29 26.363 C 22.3406 26.298 22.334 26.2925 22.3313 26.2891 Z" stroke-linecap="round"/>
</g>
		<g transform="matrix(4.9766 0 0 4.9766 23.4569 -39.9491)" id="547372" clip-path="url(#CLIPPATH_11)">
<clipPath id="CLIPPATH_11">
	<rect transform="matrix(1 0 0 1 51.1092 8.1265)" id="clip0_305_14343" x="-73.5" y="-21.7778" rx="0" ry="0" width="147" height="43.5556"/>
</clipPath>
<path style="stroke: none; stroke-width: 1; stroke-dasharray: none; stroke-linecap: butt; stroke-dashoffset: 0; stroke-linejoin: miter; stroke-miterlimit: 4; is-custom-font: none; font-file-url: none; fill: rgb(255,255,255); fill-rule: nonzero; opacity: 1;" transform=" translate(-22.3908, -13.6513)" d="M 21.8005 16.9408 C 21.0484 16.4809 20.3637 16.0644 19.5796 15.5873 C 20.5516 13.894 21.5351 12.1806 22.5791 10.3618 C 23.4443 10.8503 24.2512 11.3058 25.202 11.8426 C 24.3111 13.3957 23.4624 14.9059 22.5746 16.3928 C 22.4259 16.6418 22.1077 16.7896 21.8005 16.9408 Z" stroke-linecap="round"/>
</g>
		<g transform="matrix(4.9766 0 0 4.9766 -39.443 22.8696)" id="162394" clip-path="url(#CLIPPATH_12)">
<clipPath id="CLIPPATH_12">
	<rect transform="matrix(1 0 0 1 63.7484 -4.4963)" id="clip0_305_14343" x="-73.5" y="-21.7778" rx="0" ry="0" width="147" height="43.5556"/>
</clipPath>
<path style="stroke: none; stroke-width: 1; stroke-dasharray: none; stroke-linecap: butt; stroke-dashoffset: 0; stroke-linejoin: miter; stroke-miterlimit: 4; is-custom-font: none; font-file-url: none; fill: rgb(255,255,255); fill-rule: nonzero; opacity: 1;" transform=" translate(-9.7516, -26.2741)" d="M 8.9095 28.4984 C 8.53963 28.7036 8.23341 28.8655 7.87949 29.0527 C 7.39878 28.2264 6.94177 27.4407 6.40186 26.5126 C 8.13941 25.5076 9.85662 24.5144 11.6179 23.4956 C 12.1054 24.3398 12.572 25.1479 13.1014 26.0647 C 11.7488 26.848 10.361 27.6516 8.9095 28.4984 Z" stroke-linecap="round"/>
</g>
		<g transform="matrix(4.9766 0 0 4.9766 -45.3179 -0.2668)" id="242704" clip-path="url(#CLIPPATH_13)">
<clipPath id="CLIPPATH_13">
	<rect transform="matrix(1 0 0 1 64.9289 0.1527)" id="clip0_305_14343" x="-73.5" y="-21.7778" rx="0" ry="0" width="147" height="43.5556"/>
</clipPath>
<path style="stroke: none; stroke-width: 1; stroke-dasharray: none; stroke-linecap: butt; stroke-dashoffset: 0; stroke-linejoin: miter; stroke-miterlimit: 4; is-custom-font: none; font-file-url: none; fill: rgb(255,255,255); fill-rule: nonzero; opacity: 1;" transform=" translate(-8.5711, -21.6251)" d="M 8.58943 20.1641 C 9.63646 20.1641 10.5783 20.1641 11.5695 20.1641 C 11.5695 21.1502 11.5695 22.0784 11.5695 23.0861 C 9.59522 23.0861 7.61725 23.0861 5.57275 23.0861 C 5.57275 22.1596 5.57275 21.2304 5.57275 20.1641 C 6.55112 20.1641 7.51771 20.1641 8.58943 20.1641 Z" stroke-linecap="round"/>
</g>
		<g transform="matrix(4.9766 0 0 4.9766 0.7594 -76.2635)" id="17021" clip-path="url(#CLIPPATH_14)">
<clipPath id="CLIPPATH_14">
	<rect transform="matrix(1 0 0 1 55.6701 15.4236)" id="clip0_305_14343" x="-73.5" y="-21.7778" rx="0" ry="0" width="147" height="43.5556"/>
</clipPath>
<path style="stroke: none; stroke-width: 1; stroke-dasharray: none; stroke-linecap: butt; stroke-dashoffset: 0; stroke-linejoin: miter; stroke-miterlimit: 4; is-custom-font: none; font-file-url: none; fill: rgb(255,255,255); fill-rule: nonzero; opacity: 1;" transform=" translate(-17.8299, -6.3542)" d="M 19.0389 4.82458 C 19.2186 5.83514 19.3085 6.82045 19.4077 7.90915 C 18.2661 7.90915 17.2808 7.90915 16.2522 7.90915 C 16.2522 6.90689 16.2522 5.937 16.2522 4.79932 C 17.1634 4.79932 18.0562 4.79932 19.0389 4.82458 Z" stroke-linecap="round"/>
</g>
		<g transform="matrix(4.9766 0 0 4.9766 -0.3014 76.2646)" id="766075" clip-path="url(#CLIPPATH_15)">
<clipPath id="CLIPPATH_15">
	<rect transform="matrix(1 0 0 1 55.8832 -15.2256)" id="clip0_305_14343" x="-73.5" y="-21.7778" rx="0" ry="0" width="147" height="43.5556"/>
</clipPath>
<path style="stroke: none; stroke-width: 1; stroke-dasharray: none; stroke-linecap: butt; stroke-dashoffset: 0; stroke-linejoin: miter; stroke-miterlimit: 4; is-custom-font: none; font-file-url: none; fill: rgb(255,255,255); fill-rule: nonzero; opacity: 1;" transform=" translate(-17.6168, -37.0034)" d="M 16.7346 35.4493 C 17.5598 35.4487 18.291 35.4487 19.1008 35.4487 C 19.1008 36.5083 19.1008 37.502 19.1008 38.5581 C 18.1641 38.5581 17.2046 38.5581 16.1401 38.5581 C 16.1401 37.6747 16.1131 36.8077 16.1628 35.945 C 16.1728 35.7714 16.4738 35.6146 16.7346 35.4493 Z" stroke-linecap="round"/>
</g>
		<g transform="matrix(4.9766 0 0 4.9766 76.2581 0.3412)" id="654082" clip-path="url(#CLIPPATH_16)">
<clipPath id="CLIPPATH_16">
	<rect transform="matrix(1 0 0 1 40.4993 0.0305)" id="clip0_305_14343" x="-73.5" y="-21.7778" rx="0" ry="0" width="147" height="43.5556"/>
</clipPath>
<path style="stroke: none; stroke-width: 1; stroke-dasharray: none; stroke-linecap: butt; stroke-dashoffset: 0; stroke-linejoin: miter; stroke-miterlimit: 4; is-custom-font: none; font-file-url: none; fill: rgb(255,255,255); fill-rule: nonzero; opacity: 1;" transform=" translate(-33.0007, -21.7473)" d="M 32.3306 20.252 C 33.1236 20.252 33.8196 20.252 34.5576 20.252 C 34.5576 21.2981 34.5576 22.2354 34.5576 23.2425 C 33.572 23.2425 32.6028 23.2425 31.4549 23.2425 C 31.4549 22.4111 31.4138 21.5464 31.4901 20.6923 C 31.5051 20.5247 31.9741 20.3976 32.3306 20.252 Z" stroke-linecap="round"/>
</g>
		<g transform="matrix(4.9766 0 0 4.9766 -65.8112 -37.5704)" id="317144" clip-path="url(#CLIPPATH_17)">
<clipPath id="CLIPPATH_17">
	<rect transform="matrix(1 0 0 1 69.0468 7.6485)" id="clip0_305_14343" x="-73.5" y="-21.7778" rx="0" ry="0" width="147" height="43.5556"/>
</clipPath>
<path style="stroke: none; stroke-width: 1; stroke-dasharray: none; stroke-linecap: butt; stroke-dashoffset: 0; stroke-linejoin: miter; stroke-miterlimit: 4; is-custom-font: none; font-file-url: none; fill: rgb(255,255,255); fill-rule: nonzero; opacity: 1;" transform=" translate(-4.4532, -14.1293)" d="M 4.3584 12.1972 C 5.11296 12.643 5.80484 13.0504 6.55479 13.492 C 6.04564 14.3742 5.57676 15.1866 5.06103 16.0803 C 4.15798 15.5658 3.31323 15.0847 2.35156 14.5369 C 2.81337 13.7376 3.2281 12.9775 3.69697 12.2525 C 3.77002 12.1395 4.08994 12.186 4.3584 12.1972 Z" stroke-linecap="round"/>
</g>
		<g transform="matrix(4.9766 0 0 4.9766 -66.0674 38.1383)" id="591861" clip-path="url(#CLIPPATH_18)">
<clipPath id="CLIPPATH_18">
	<rect transform="matrix(1 0 0 1 69.0983 -7.5644)" id="clip0_305_14343" x="-73.5" y="-21.7778" rx="0" ry="0" width="147" height="43.5556"/>
</clipPath>
<path style="stroke: none; stroke-width: 1; stroke-dasharray: none; stroke-linecap: butt; stroke-dashoffset: 0; stroke-linejoin: miter; stroke-miterlimit: 4; is-custom-font: none; font-file-url: none; fill: rgb(255,255,255); fill-rule: nonzero; opacity: 1;" transform=" translate(-4.4017, -29.3422)" d="M 5.56028 28.2459 C 5.87639 28.7947 6.15222 29.2782 6.47455 29.8433 C 5.60081 30.3531 4.74066 30.8549 3.82107 31.3915 C 3.31682 30.5229 2.84885 29.7168 2.32886 28.8211 C 3.21425 28.3061 4.04447 27.8232 4.95603 27.293 C 5.15937 27.613 5.33968 27.8967 5.56028 28.2459 Z" stroke-linecap="round"/>
</g>
		<g transform="matrix(4.9766 0 0 4.9766 66.1129 38.4717)" id="656760" clip-path="url(#CLIPPATH_19)">
<clipPath id="CLIPPATH_19">
	<rect transform="matrix(1 0 0 1 42.5378 -7.6315)" id="clip0_305_14343" x="-73.5" y="-21.7778" rx="0" ry="0" width="147" height="43.5556"/>
</clipPath>
<path style="stroke: none; stroke-width: 1; stroke-dasharray: none; stroke-linecap: butt; stroke-dashoffset: 0; stroke-linejoin: miter; stroke-miterlimit: 4; is-custom-font: none; font-file-url: none; fill: rgb(255,255,255); fill-rule: nonzero; opacity: 1;" transform=" translate(-30.9622, -29.4093)" d="M 30.4399 30.8767 C 29.8946 30.5521 29.4147 30.272 28.8628 29.9498 C 29.3647 29.0758 29.8442 28.2408 30.3622 27.3389 C 31.2722 27.8671 32.1054 28.3507 33.0615 28.9056 C 32.5607 29.7759 32.0857 30.6012 31.5802 31.4796 C 31.1717 31.2674 30.8384 31.0943 30.4399 30.8767 Z" stroke-linecap="round"/>
</g>
		<g transform="matrix(4.9766 0 0 4.9766 -37.7762 -65.6654)" id="849794" clip-path="url(#CLIPPATH_20)">
<clipPath id="CLIPPATH_20">
	<rect transform="matrix(1 0 0 1 63.4134 13.294)" id="clip0_305_14343" x="-73.5" y="-21.7778" rx="0" ry="0" width="147" height="43.5556"/>
</clipPath>
<path style="stroke: none; stroke-width: 1; stroke-dasharray: none; stroke-linecap: butt; stroke-dashoffset: 0; stroke-linejoin: miter; stroke-miterlimit: 4; is-custom-font: none; font-file-url: none; fill: rgb(255,255,255); fill-rule: nonzero; opacity: 1;" transform=" translate(-10.0866, -8.4838)" d="M 9.92994 6.72216 C 10.3509 6.42548 10.6514 6.31473 10.9145 6.83065 C 11.279 7.54516 11.7009 8.23039 12.146 9.01215 C 11.2754 9.51431 10.4656 9.9814 9.57338 10.496 C 9.05837 9.60794 8.57162 8.76859 8.0271 7.82963 C 8.6707 7.45682 9.26782 7.11092 9.92994 6.72216 Z" stroke-linecap="round"/>
</g>
		<g transform="matrix(4.9766 0 0 4.9766 -38.1939 65.7686)" id="445780" clip-path="url(#CLIPPATH_21)">
<clipPath id="CLIPPATH_21">
	<rect transform="matrix(1 0 0 1 63.4974 -13.1165)" id="clip0_305_14343" x="-73.5" y="-21.7778" rx="0" ry="0" width="147" height="43.5556"/>
</clipPath>
<path style="stroke: none; stroke-width: 1; stroke-dasharray: none; stroke-linecap: butt; stroke-dashoffset: 0; stroke-linejoin: miter; stroke-miterlimit: 4; is-custom-font: none; font-file-url: none; fill: rgb(255,255,255); fill-rule: nonzero; opacity: 1;" transform=" translate(-10.0026, -34.8943)" d="M 9.80404 36.662 C 9.16756 36.293 8.59854 35.956 7.92578 35.5576 C 8.42987 34.6762 8.91985 33.8195 9.46671 32.8633 C 10.3641 33.3776 11.192 33.852 12.0795 34.3606 C 11.635 35.1403 11.2123 35.8169 10.8562 36.5268 C 10.5772 37.083 10.2586 36.9878 9.80404 36.662 Z" stroke-linecap="round"/>
</g>
		<g transform="matrix(4.9766 0 0 4.9766 39.2587 -65.7243)" id="143779" clip-path="url(#CLIPPATH_22)">
<clipPath id="CLIPPATH_22">
	<rect transform="matrix(1 0 0 1 47.934 13.3058)" id="clip0_305_14343" x="-73.5" y="-21.7778" rx="0" ry="0" width="147" height="43.5556"/>
</clipPath>
<path style="stroke: none; stroke-width: 1; stroke-dasharray: none; stroke-linecap: butt; stroke-dashoffset: 0; stroke-linejoin: miter; stroke-miterlimit: 4; is-custom-font: none; font-file-url: none; fill: rgb(255,255,255); fill-rule: nonzero; opacity: 1;" transform=" translate(-25.566, -8.472)" d="M 23.7089 8.41677 C 24.1154 7.72019 24.4807 7.08824 24.8928 6.37549 C 25.7669 6.87305 26.575 7.333 27.4917 7.85481 C 26.992 8.74612 26.5218 9.58457 25.9701 10.5685 C 25.1745 10.1158 24.4121 9.71937 23.703 9.24348 C 23.5773 9.1591 23.6738 8.74387 23.7089 8.41677 Z" stroke-linecap="round"/>
</g>
		<g transform="matrix(4.9766 0 0 4.9766 66.3321 -37.7145)" id="369762" clip-path="url(#CLIPPATH_23)">
<clipPath id="CLIPPATH_23">
	<rect transform="matrix(1 0 0 1 42.4938 7.6775)" id="clip0_305_14343" x="-73.5" y="-21.7778" rx="0" ry="0" width="147" height="43.5556"/>
</clipPath>
<path style="stroke: none; stroke-width: 1; stroke-dasharray: none; stroke-linecap: butt; stroke-dashoffset: 0; stroke-linejoin: miter; stroke-miterlimit: 4; is-custom-font: none; font-file-url: none; fill: rgb(255,255,255); fill-rule: nonzero; opacity: 1;" transform=" translate(-31.0062, -14.1003)" d="M 32.5162 13.5601 C 32.7191 13.9327 32.8887 14.237 33.1086 14.6317 C 32.2257 15.1436 31.3617 15.6446 30.4332 16.183 C 29.9244 15.3222 29.4488 14.5175 28.9038 13.5956 C 29.7944 13.0742 30.6479 12.5745 31.5993 12.0176 C 31.9192 12.5512 32.201 13.0215 32.5162 13.5601 Z" stroke-linecap="round"/>
</g>
		<g transform="matrix(4.9766 0 0 4.9766 37.6967 66.314)" id="577286" clip-path="url(#CLIPPATH_24)">
<clipPath id="CLIPPATH_24">
	<rect transform="matrix(1 0 0 1 48.2478 -13.2261)" id="clip0_305_14343" x="-73.5" y="-21.7778" rx="0" ry="0" width="147" height="43.5556"/>
</clipPath>
<path style="stroke: none; stroke-width: 1; stroke-dasharray: none; stroke-linecap: butt; stroke-dashoffset: 0; stroke-linejoin: miter; stroke-miterlimit: 4; is-custom-font: none; font-file-url: none; fill: rgb(255,255,255); fill-rule: nonzero; opacity: 1;" transform=" translate(-25.2522, -35.0039)" d="M 27.1962 35.677 C 26.3969 36.1631 25.6415 36.5942 24.8185 37.064 C 24.3093 36.1799 23.8284 35.3449 23.3081 34.4415 C 24.1582 33.9448 24.9359 33.4905 25.8717 32.9438 C 26.3451 33.8704 26.7926 34.7462 27.1962 35.677 Z" stroke-linecap="round"/>
</g>
		<g transform="matrix(4.9766 0 0 4.9766 -76.2374 0.0263)" id="745758" clip-path="url(#CLIPPATH_25)">
<clipPath id="CLIPPATH_25">
	<rect transform="matrix(1 0 0 1 71.1419 0.0938)" id="clip0_305_14343" x="-73.5" y="-21.7778" rx="0" ry="0" width="147" height="43.5556"/>
</clipPath>
<path style="stroke: none; stroke-width: 1; stroke-dasharray: none; stroke-linecap: butt; stroke-dashoffset: 0; stroke-linejoin: miter; stroke-miterlimit: 4; is-custom-font: none; font-file-url: none; fill: rgb(255,255,255); fill-rule: nonzero; opacity: 1;" transform=" translate(-2.3581, -21.684)" d="M 3.85243 23.0545 C 2.83806 23.1317 1.8904 23.1317 0.797119 23.1317 C 0.797119 22.6234 0.797119 22.1443 0.797119 21.6652 C 0.797119 21.2124 0.797119 20.7596 0.797119 20.2363 C 1.85778 20.2363 2.85256 20.2363 3.91914 20.2363 C 3.91914 21.1653 3.91914 22.0714 3.85243 23.0545 Z" stroke-linecap="round"/>
</g>
</g>
</g>
</svg>