<svg width="147" height="44" viewBox="0 0 147 44" fill="none" xmlns="http://www.w3.org/2000/svg">
<g clip-path="url(#clip0_305_14343)">
<path d="M19.2237 33.5351C18.9078 33.7408 18.5993 33.9289 18.278 33.954C17.6203 34.0055 16.9557 33.9695 16.2549 33.9695C16.2549 31.8816 16.2549 29.8951 16.2549 27.8633C17.2077 27.8633 18.1338 27.8633 19.2253 27.8633C19.2253 29.6983 19.2253 31.571 19.2237 33.5351Z" fill="white"/>
<path d="M29.6126 20.1972C29.843 21.1588 29.9797 22.1169 30.1305 23.1741C27.9453 23.1741 25.9604 23.1741 23.9434 23.1741C23.9434 22.2203 23.9434 21.2635 23.9434 20.1938C25.8012 20.1938 27.66 20.1938 29.6126 20.1972Z" fill="white"/>
<path d="M16.211 10.8892C16.211 10.3725 16.211 9.95857 16.211 9.47119C17.2678 9.47119 18.2271 9.47119 19.2552 9.47119C19.2552 11.4941 19.2552 13.4805 19.2552 15.5336C18.2988 15.5336 17.3342 15.5336 16.2109 15.5336C16.2109 14.0473 16.2109 12.5196 16.211 10.8892Z" fill="white"/>
<path d="M10.9696 30.3729C11.7806 28.9749 12.5511 27.6459 13.3354 26.293C14.1995 26.7899 15.0327 27.269 15.9508 27.797C14.96 29.5115 13.9519 31.2559 12.9154 33.0496C12.0387 32.547 11.2263 32.0812 10.3413 31.5739C10.5578 31.1568 10.7435 30.7993 10.9696 30.3729Z" fill="white"/>
<path d="M22.3407 26.2979C22.8194 25.3926 23.298 24.4874 23.8242 23.4922C25.5737 24.4979 27.2905 25.4847 29.116 26.5341C28.6194 27.3946 28.1429 28.2202 27.6162 29.1328C25.8649 28.1449 24.1719 27.1897 22.4065 26.2635C22.3341 26.2924 22.3407 26.2979 22.3407 26.2979Z" fill="white"/>
<path d="M13.2586 17.2134C12.815 16.327 12.391 15.4301 11.9224 14.5571C11.4442 13.6662 10.9221 12.7989 10.3735 11.8414C11.2469 11.3336 12.0543 10.8641 12.9402 10.3491C13.9717 12.1261 14.9719 13.849 15.9724 15.5724C15.0703 16.0826 14.1983 16.5757 13.2852 17.1406C13.2439 17.2123 13.2586 17.2134 13.2586 17.2134Z" fill="white"/>
<path d="M29.0353 16.7855C27.3428 17.8908 25.6399 18.9219 23.9029 19.9738C23.3775 19.066 22.8971 18.2358 22.3674 17.3207C24.0822 16.3307 25.7966 15.3408 27.6275 14.2837C28.1275 15.1524 28.5762 15.9319 29.0353 16.7855Z" fill="white"/>
<path d="M13.245 17.205C12.7272 18.062 12.2082 18.9262 11.6361 19.8789C9.95561 18.9128 8.24339 17.9285 6.40186 16.8698C6.89129 16.0123 7.36469 15.1828 7.8907 14.2612C9.65826 15.263 11.3816 16.2397 13.1818 17.2149C13.2586 17.2133 13.2439 17.2122 13.245 17.205Z" fill="white"/>
<path d="M22.3313 26.2891C22.4194 26.5883 22.4587 26.9198 22.6096 27.1888C23.4141 28.623 24.2465 30.0416 25.1177 31.5494C24.2904 32.0295 23.5101 32.4824 22.5828 33.0206C21.5707 31.2812 20.5783 29.5759 19.5449 27.8C20.4857 27.321 21.3626 26.8745 22.29 26.363C22.3406 26.298 22.334 26.2925 22.3313 26.2891Z" fill="white"/>
<path d="M21.8005 16.9408C21.0484 16.4809 20.3637 16.0644 19.5796 15.5873C20.5516 13.894 21.5351 12.1806 22.5791 10.3618C23.4443 10.8503 24.2512 11.3058 25.202 11.8426C24.3111 13.3957 23.4624 14.9059 22.5746 16.3928C22.4259 16.6418 22.1077 16.7896 21.8005 16.9408Z" fill="white"/>
<path d="M8.9095 28.4984C8.53963 28.7036 8.23341 28.8655 7.87949 29.0527C7.39878 28.2264 6.94177 27.4407 6.40186 26.5126C8.13941 25.5076 9.85662 24.5144 11.6179 23.4956C12.1054 24.3398 12.572 25.1479 13.1014 26.0647C11.7488 26.848 10.361 27.6516 8.9095 28.4984Z" fill="white"/>
<path d="M8.58943 20.1641C9.63646 20.1641 10.5783 20.1641 11.5695 20.1641C11.5695 21.1502 11.5695 22.0784 11.5695 23.0861C9.59522 23.0861 7.61725 23.0861 5.57275 23.0861C5.57275 22.1596 5.57275 21.2304 5.57275 20.1641C6.55112 20.1641 7.51771 20.1641 8.58943 20.1641Z" fill="white"/>
<path d="M83.2661 31.9385C83.2661 32.3481 83.2661 32.66 83.2661 32.9999C82.2295 32.9999 81.2828 32.9999 80.2445 32.9999C80.2445 27.2459 80.2445 21.5022 80.2445 15.6867C81.1217 15.6867 82.0171 15.6867 82.9501 15.6867C83.0558 16.1191 83.1628 16.5572 83.3143 17.1771C84.7123 15.5447 86.4404 15.0272 88.4401 15.3986C89.8886 15.6676 91.0495 16.4123 91.9445 17.5707C93.908 20.1122 93.645 24.1412 91.378 26.3643C89.2263 28.4743 86.0765 28.5181 83.2661 26.3151C83.2661 28.258 83.2661 30.0494 83.2661 31.9385ZM86.8777 25.1991C88.8113 24.831 89.8672 23.7702 90.0048 22.0576C90.1493 20.2583 89.2861 18.7617 87.7803 18.2742C86.4281 17.8365 85.1902 18.0605 84.2041 19.1234C83.14 20.2705 82.9873 21.6565 83.5115 23.0602C84.0435 24.4846 85.1679 25.1919 86.8777 25.1991Z" fill="white"/>
<path d="M136.875 16.0849C138.926 15.0901 140.943 14.9826 142.949 15.924C145.352 17.0517 146.619 19.727 146.027 22.4256C143.072 22.4256 140.094 22.4256 137.047 22.4256C137.09 23.7306 137.678 24.5832 138.749 25.0575C139.847 25.5433 141.116 25.6415 141.88 24.6842C142.607 23.7728 143.407 23.8725 144.295 23.8596C144.752 23.8529 145.209 23.8584 145.67 23.8584C145.392 25.9378 143.282 27.7021 140.808 27.9546C137.796 28.2619 135.171 26.7313 134.222 24.1153C133.132 21.1094 134.175 17.8891 136.875 16.0849ZM138.044 18.6185C137.69 19.1421 137.336 19.6657 136.87 20.353C139.066 20.353 140.963 20.353 142.854 20.353C142.869 20.2278 142.894 20.1565 142.883 20.0915C142.521 18.0147 140.312 17.2772 138.044 18.6185Z" fill="white"/>
<path d="M53.5843 15.3034C56.1276 15.6376 57.667 16.9759 57.8085 19.3328C57.9722 22.0593 57.8466 24.8032 57.8466 27.6087C56.8908 27.6087 55.8934 27.6087 54.781 27.6087C54.781 25.7564 54.7827 23.9364 54.7799 22.1164C54.7792 21.6241 54.7939 21.1294 54.7517 20.6401C54.6023 18.9071 53.8678 18.081 52.4577 18.0224C50.7763 17.9526 49.5496 18.8707 49.3925 20.5405C49.2479 22.0762 49.3177 23.6324 49.3002 25.1796C49.2915 25.9526 49.2987 26.7258 49.2987 27.5881C48.2633 27.5881 47.2657 27.5881 46.1892 27.5881C46.1892 23.6597 46.1892 19.7053 46.1892 15.683C47.086 15.683 47.9783 15.683 48.8953 15.683C48.9721 16.2009 49.0432 16.6807 49.1532 17.4228C50.3127 15.8559 51.7411 15.206 53.5843 15.3034Z" fill="white"/>
<path d="M102.619 22.755C102.218 19.789 103.387 17.2877 105.693 16.0449C107.972 14.8167 110.846 15.1052 112.807 16.759C114.861 18.491 115.522 21.73 114.366 24.3952C113.298 26.8565 110.649 28.3134 107.906 27.9483C105.093 27.5739 103.094 25.6366 102.619 22.755ZM110.403 24.6483C111.793 23.4058 112.158 21.0326 111.177 19.4688C110.571 18.5024 109.682 17.9772 108.53 18.0688C107.344 18.1632 106.442 18.7976 106.087 19.9269C105.853 20.6718 105.779 21.5141 105.841 22.2963C106.036 24.7592 108.054 25.8441 110.403 24.6483Z" fill="white"/>
<path d="M74.4481 15.5829C78.7295 17.0781 79.3791 21.6436 78.0196 24.5782C76.5425 27.7668 72.3782 28.9687 69.2692 27.1573C66.6354 25.6228 65.5476 22.2924 66.6764 19.2192C67.6989 16.4351 70.6419 14.8216 73.6456 15.3994C73.8874 15.446 74.1276 15.5009 74.4481 15.5829ZM75.3992 20.9941C75.2483 19.72 74.6938 18.7261 73.4394 18.2462C71.9707 17.6844 70.3286 18.461 69.7637 19.9671C68.9624 22.1038 69.7674 24.4858 71.556 25.0278C72.1167 25.1977 72.8167 25.1846 73.3805 25.0148C74.8626 24.5686 75.4647 23.332 75.3992 20.9941Z" fill="white"/>
<path d="M120.127 27.2226C119.843 27.4365 119.567 27.6415 119.278 27.6612C118.548 27.7111 117.812 27.6778 116.978 27.6778C116.978 24.5227 116.978 21.4455 116.978 18.3142C116.397 18.2852 115.914 18.2612 115.378 18.2345C115.378 17.3941 115.378 16.5676 115.378 15.6586C115.863 15.6308 116.337 15.6037 116.876 15.5728C117.072 13.9268 116.67 12.0897 118.284 10.9265C119.515 10.0402 120.933 10.1487 122.398 10.2354C122.398 11.0944 122.398 11.9188 122.398 12.7391C120.018 13.2513 119.919 13.3787 120.247 15.6156C120.64 15.6156 121.051 15.6156 121.463 15.6156C121.844 15.6156 122.226 15.6156 122.67 15.6156C122.67 16.522 122.67 17.3424 122.67 18.2425C121.857 18.2425 121.059 18.2425 120.129 18.2425C120.129 21.2557 120.129 24.1925 120.127 27.2226Z" fill="white"/>
<path d="M60.1768 14.4736C60.3444 10.9691 61.8168 9.85789 65.6478 10.2679C65.6478 11.1004 65.6478 11.9358 65.6478 12.7657C63.25 13.1733 63.204 13.2309 63.4332 15.5874C64.2172 15.5874 65.012 15.5874 65.8671 15.5874C65.8671 16.4915 65.8671 17.3223 65.8671 18.2202C65.0881 18.2202 64.2939 18.2202 63.3784 18.2202C63.3784 21.3861 63.3784 24.4896 63.3784 27.6243C62.2516 27.6243 61.2469 27.6243 60.1615 27.6243C60.1615 24.4913 60.1615 21.4106 60.1615 18.2702C59.6003 18.2702 59.119 18.2702 58.5791 18.2702C58.5791 17.3854 58.5791 16.561 58.5791 15.6677C59.0775 15.639 59.561 15.6112 60.1768 15.5757C60.1768 15.2433 60.1768 14.9089 60.1768 14.4736Z" fill="white"/>
<path d="M129.138 26.8603C129.138 21.2779 129.138 15.7936 129.138 10.2515C130.191 10.2515 131.196 10.2515 132.26 10.2515C132.26 16.0183 132.26 21.7997 132.26 27.6773C131.4 27.6773 130.56 27.7263 129.734 27.6444C129.515 27.6227 129.336 27.198 129.138 26.8603Z" fill="white"/>
<path d="M97.9279 27.034C97.742 27.3113 97.5667 27.638 97.3692 27.652C96.5362 27.7111 95.6966 27.677 94.8022 27.677C94.8022 23.6517 94.8022 19.7229 94.8022 15.7046C95.6747 15.7046 96.5684 15.7046 97.5348 15.7046C97.6326 16.2566 97.7388 16.8559 97.8752 17.6256C99.0272 16.0852 100.415 15.2875 102.245 15.308C102.245 16.4474 102.245 17.5229 102.245 18.6657C101.776 18.6657 101.355 18.6449 100.937 18.6692C99.0502 18.7791 98.0185 19.7622 97.9456 21.6609C97.8782 23.418 97.9293 25.1797 97.9279 27.034Z" fill="white"/>
<path d="M125.915 27.6773C125.259 27.6774 124.701 27.6774 124.087 27.6774C124.087 23.644 124.087 19.6865 124.087 15.6719C125.088 15.6719 126.093 15.6719 127.153 15.6719C127.153 19.6523 127.153 23.6098 127.153 27.6773C126.77 27.6773 126.392 27.6773 125.915 27.6773Z" fill="white"/>
<path d="M40.9712 20.8011C40.9712 19.0468 40.9712 17.3981 40.9712 15.6826C42.0311 15.6826 43.032 15.6826 44.0726 15.6826C44.0726 19.6694 44.0726 23.6257 44.0726 27.63C43.0594 27.63 42.0876 27.63 40.9712 27.63C40.9712 25.3712 40.9712 23.139 40.9712 20.8011Z" fill="white"/>
<path d="M124.346 13.4044C124.127 12.334 124.005 11.2653 123.873 10.1172C125.049 10.1172 126.045 10.1172 127.108 10.1172C127.108 11.1714 127.108 12.2114 127.108 13.4062C126.239 13.4062 125.34 13.4062 124.346 13.4044Z" fill="white"/>
<path d="M42.4251 10.0532C43.011 10.0532 43.4957 10.0532 44.0474 10.0532C44.0474 11.1699 44.0474 12.2325 44.0474 13.3516C43.0612 13.3516 42.0632 13.3516 41.001 13.3516C41.001 12.3031 41.001 11.2394 41.001 10.0532C41.4404 10.0532 41.8822 10.0532 42.4251 10.0532Z" fill="white"/>
<path d="M19.0389 4.82458C19.2186 5.83514 19.3085 6.82045 19.4077 7.90915C18.2661 7.90915 17.2808 7.90915 16.2522 7.90915C16.2522 6.90689 16.2522 5.937 16.2522 4.79932C17.1634 4.79932 18.0562 4.79932 19.0389 4.82458Z" fill="white"/>
<path d="M16.7346 35.4493C17.5598 35.4487 18.291 35.4487 19.1008 35.4487C19.1008 36.5083 19.1008 37.502 19.1008 38.5581C18.1641 38.5581 17.2046 38.5581 16.1401 38.5581C16.1401 37.6747 16.1131 36.8077 16.1628 35.945C16.1728 35.7714 16.4738 35.6146 16.7346 35.4493Z" fill="white"/>
<path d="M32.3306 20.252C33.1236 20.252 33.8196 20.252 34.5576 20.252C34.5576 21.2981 34.5576 22.2354 34.5576 23.2425C33.572 23.2425 32.6028 23.2425 31.4549 23.2425C31.4549 22.4111 31.4138 21.5464 31.4901 20.6923C31.5051 20.5247 31.9741 20.3976 32.3306 20.252Z" fill="white"/>
<path d="M4.3584 12.1972C5.11296 12.643 5.80484 13.0504 6.55479 13.492C6.04564 14.3742 5.57676 15.1866 5.06103 16.0803C4.15798 15.5658 3.31323 15.0847 2.35156 14.5369C2.81337 13.7376 3.2281 12.9775 3.69697 12.2525C3.77002 12.1395 4.08994 12.186 4.3584 12.1972Z" fill="white"/>
<path d="M5.56028 28.2459C5.87639 28.7947 6.15222 29.2782 6.47455 29.8433C5.60081 30.3531 4.74066 30.8549 3.82107 31.3915C3.31682 30.5229 2.84885 29.7168 2.32886 28.8211C3.21425 28.3061 4.04447 27.8232 4.95603 27.293C5.15937 27.613 5.33968 27.8967 5.56028 28.2459Z" fill="white"/>
<path d="M30.4399 30.8767C29.8946 30.5521 29.4147 30.272 28.8628 29.9498C29.3647 29.0758 29.8442 28.2408 30.3622 27.3389C31.2722 27.8671 32.1054 28.3507 33.0615 28.9056C32.5607 29.7759 32.0857 30.6012 31.5802 31.4796C31.1717 31.2674 30.8384 31.0943 30.4399 30.8767Z" fill="white"/>
<path d="M9.92994 6.72216C10.3509 6.42548 10.6514 6.31473 10.9145 6.83065C11.279 7.54516 11.7009 8.23039 12.146 9.01215C11.2754 9.51431 10.4656 9.9814 9.57338 10.496C9.05837 9.60794 8.57162 8.76859 8.0271 7.82963C8.6707 7.45682 9.26782 7.11092 9.92994 6.72216Z" fill="white"/>
<path d="M9.80404 36.662C9.16756 36.293 8.59854 35.956 7.92578 35.5576C8.42987 34.6762 8.91985 33.8195 9.46671 32.8633C10.3641 33.3776 11.192 33.852 12.0795 34.3606C11.635 35.1403 11.2123 35.8169 10.8562 36.5268C10.5772 37.083 10.2586 36.9878 9.80404 36.662Z" fill="white"/>
<path d="M23.7089 8.41677C24.1154 7.72019 24.4807 7.08824 24.8928 6.37549C25.7669 6.87305 26.575 7.333 27.4917 7.85481C26.992 8.74612 26.5218 9.58457 25.9701 10.5685C25.1745 10.1158 24.4121 9.71937 23.703 9.24348C23.5773 9.1591 23.6738 8.74387 23.7089 8.41677Z" fill="white"/>
<path d="M32.5162 13.5601C32.7191 13.9327 32.8887 14.237 33.1086 14.6317C32.2257 15.1436 31.3617 15.6446 30.4332 16.183C29.9244 15.3222 29.4488 14.5175 28.9038 13.5956C29.7944 13.0742 30.6479 12.5745 31.5993 12.0176C31.9192 12.5512 32.201 13.0215 32.5162 13.5601Z" fill="white"/>
<path d="M27.1962 35.677C26.3969 36.1631 25.6415 36.5942 24.8185 37.064C24.3093 36.1799 23.8284 35.3449 23.3081 34.4415C24.1582 33.9448 24.9359 33.4905 25.8717 32.9438C26.3451 33.8704 26.7926 34.7462 27.1962 35.677Z" fill="white"/>
<path d="M3.85243 23.0545C2.83806 23.1317 1.8904 23.1317 0.797119 23.1317C0.797119 22.6234 0.797119 22.1443 0.797119 21.6652C0.797119 21.2124 0.797119 20.7596 0.797119 20.2363C1.85778 20.2363 2.85256 20.2363 3.91914 20.2363C3.91914 21.1653 3.91914 22.0714 3.85243 23.0545Z" fill="white"/>
</g>
<defs>
<clipPath id="clip0_305_14343">
<rect width="147" height="43.5556" fill="white"/>
</clipPath>
</defs>
</svg>
